<svg width="180" height="76" viewBox="0 0 180 76" fill="none" xmlns="http://www.w3.org/2000/svg">
<path d="M31.4804 8.21927C31.4804 8.70863 31.368 9.15789 31.1434 9.56703C30.9188 9.96815 30.5738 10.2931 30.1085 10.5418C29.6432 10.7904 29.0656 10.9148 28.3757 10.9148H27.1001V13.9473H25.0424V5.49967H28.3757C29.0496 5.49967 29.6192 5.61599 30.0845 5.84864C30.5498 6.08129 30.8987 6.40219 31.1314 6.81133C31.364 7.22047 31.4804 7.68979 31.4804 8.21927ZM28.2192 9.27822C28.6123 9.27822 28.9052 9.18597 29.0977 9.00145C29.2902 8.81693 29.3865 8.55621 29.3865 8.21927C29.3865 7.88232 29.2902 7.6216 29.0977 7.43708C28.9052 7.25256 28.6123 7.16031 28.2192 7.16031H27.1001V9.27822H28.2192ZM36.8597 13.9473L35.1028 10.7584H34.6094V13.9473H32.5516V5.49967H36.0053C36.6711 5.49967 37.2367 5.61599 37.702 5.84864C38.1753 6.08129 38.5283 6.40219 38.761 6.81133C38.9936 7.21245 39.11 7.66171 39.11 8.1591C39.11 8.72067 38.9495 9.22207 38.6286 9.6633C38.3157 10.1045 37.8504 10.4174 37.2327 10.6019L39.1822 13.9473H36.8597ZM34.6094 9.30229H35.8849C36.262 9.30229 36.5428 9.21003 36.7273 9.02552C36.9198 8.841 37.0161 8.58027 37.0161 8.24333C37.0161 7.92244 36.9198 7.66973 36.7273 7.48521C36.5428 7.3007 36.262 7.20844 35.8849 7.20844H34.6094V9.30229ZM44.3968 14.0315C43.6026 14.0315 42.8726 13.847 42.2067 13.478C41.5489 13.1089 41.0234 12.5955 40.6303 11.9377C40.2452 11.2718 40.0527 10.5257 40.0527 9.6994C40.0527 8.87309 40.2452 8.13102 40.6303 7.47318C41.0234 6.81534 41.5489 6.30191 42.2067 5.93288C42.8726 5.56385 43.6026 5.37933 44.3968 5.37933C45.1911 5.37933 45.9171 5.56385 46.5749 5.93288C47.2408 6.30191 47.7622 6.81534 48.1393 7.47318C48.5244 8.13102 48.7169 8.87309 48.7169 9.6994C48.7169 10.5257 48.5244 11.2718 48.1393 11.9377C47.7542 12.5955 47.2328 13.1089 46.5749 13.478C45.9171 13.847 45.1911 14.0315 44.3968 14.0315ZM44.3968 12.1543C45.0707 12.1543 45.6082 11.9296 46.0093 11.4804C46.4185 11.0311 46.6231 10.4375 46.6231 9.6994C46.6231 8.95332 46.4185 8.35966 46.0093 7.91842C45.6082 7.46917 45.0707 7.24454 44.3968 7.24454C43.7149 7.24454 43.1694 7.46516 42.7603 7.90639C42.3592 8.34762 42.1586 8.94529 42.1586 9.6994C42.1586 10.4455 42.3592 11.0432 42.7603 11.4924C43.1694 11.9336 43.7149 12.1543 44.3968 12.1543ZM55.3611 5.49967V7.14827H51.9195V8.92925H54.4946V10.5297H51.9195V13.9473H49.8617V5.49967H55.3611ZM58.5003 7.14827V8.85705H61.256V10.4455H58.5003V12.2987H61.617V13.9473H56.4426V5.49967H61.617V7.14827H58.5003ZM66.0095 14.0315C65.3918 14.0315 64.8382 13.9312 64.3489 13.7307C63.8595 13.5301 63.4664 13.2333 63.1696 12.8402C62.8808 12.4471 62.7283 11.9738 62.7123 11.4202H64.9024C64.9345 11.7331 65.0428 11.9738 65.2273 12.1422C65.4118 12.3027 65.6525 12.3829 65.9493 12.3829C66.2542 12.3829 66.4949 12.3147 66.6713 12.1783C66.8478 12.0339 66.9361 11.8374 66.9361 11.5887C66.9361 11.3801 66.8639 11.2076 66.7195 11.0712C66.5831 10.9349 66.4106 10.8225 66.202 10.7343C66.0015 10.646 65.7127 10.5458 65.3356 10.4334C64.7901 10.265 64.3448 10.0965 63.9999 9.92804C63.6549 9.75957 63.3581 9.51087 63.1094 9.18195C62.8607 8.85304 62.7364 8.42384 62.7364 7.89436C62.7364 7.10816 63.0211 6.49445 63.5907 6.05321C64.1603 5.60396 64.9024 5.37933 65.817 5.37933C66.7476 5.37933 67.4977 5.60396 68.0672 6.05321C68.6368 6.49445 68.9417 7.11217 68.9818 7.90639H66.7556C66.7395 7.63363 66.6393 7.42104 66.4547 7.26861C66.2702 7.10816 66.0336 7.02794 65.7448 7.02794C65.4961 7.02794 65.2955 7.09613 65.1431 7.23251C64.9907 7.36087 64.9144 7.54939 64.9144 7.79809C64.9144 8.07085 65.0428 8.28344 65.2995 8.43587C65.5562 8.5883 65.9574 8.75276 66.5029 8.92925C67.0484 9.11376 67.4896 9.29026 67.8266 9.45873C68.1715 9.6272 68.4684 9.87188 68.7171 10.1928C68.9658 10.5137 69.0901 10.9268 69.0901 11.4322C69.0901 11.9136 68.9658 12.3508 68.7171 12.7439C68.4764 13.137 68.1234 13.4499 67.6581 13.6825C67.1928 13.9152 66.6433 14.0315 66.0095 14.0315ZM73.413 14.0315C72.7953 14.0315 72.2417 13.9312 71.7524 13.7307C71.263 13.5301 70.8699 13.2333 70.5731 12.8402C70.2843 12.4471 70.1318 11.9738 70.1158 11.4202H72.3059C72.338 11.7331 72.4463 11.9738 72.6308 12.1422C72.8153 12.3027 73.056 12.3829 73.3528 12.3829C73.6577 12.3829 73.8983 12.3147 74.0748 12.1783C74.2513 12.0339 74.3396 11.8374 74.3396 11.5887C74.3396 11.3801 74.2674 11.2076 74.123 11.0712C73.9866 10.9349 73.8141 10.8225 73.6055 10.7343C73.405 10.646 73.1162 10.5458 72.7391 10.4334C72.1936 10.265 71.7483 10.0965 71.4034 9.92804C71.0584 9.75957 70.7616 9.51087 70.5129 9.18195C70.2642 8.85304 70.1398 8.42384 70.1398 7.89436C70.1398 7.10816 70.4246 6.49445 70.9942 6.05321C71.5638 5.60396 72.3059 5.37933 73.2205 5.37933C74.1511 5.37933 74.9011 5.60396 75.4707 6.05321C76.0403 6.49445 76.3452 7.11217 76.3853 7.90639H74.1591C74.143 7.63363 74.0428 7.42104 73.8582 7.26861C73.6737 7.10816 73.4371 7.02794 73.1483 7.02794C72.8996 7.02794 72.699 7.09613 72.5466 7.23251C72.3941 7.36087 72.3179 7.54939 72.3179 7.79809C72.3179 8.07085 72.4463 8.28344 72.703 8.43587C72.9597 8.5883 73.3608 8.75276 73.9064 8.92925C74.4519 9.11376 74.8931 9.29026 75.2301 9.45873C75.575 9.6272 75.8719 9.87188 76.1206 10.1928C76.3693 10.5137 76.4936 10.9268 76.4936 11.4322C76.4936 11.9136 76.3693 12.3508 76.1206 12.7439C75.8799 13.137 75.5269 13.4499 75.0616 13.6825C74.5963 13.9152 74.0468 14.0315 73.413 14.0315ZM81.7551 14.0315C80.9609 14.0315 80.2308 13.847 79.565 13.478C78.9072 13.1089 78.3817 12.5955 77.9886 11.9377C77.6035 11.2718 77.411 10.5257 77.411 9.6994C77.411 8.87309 77.6035 8.13102 77.9886 7.47318C78.3817 6.81534 78.9072 6.30191 79.565 5.93288C80.2308 5.56385 80.9609 5.37933 81.7551 5.37933C82.5493 5.37933 83.2754 5.56385 83.9332 5.93288C84.5991 6.30191 85.1205 6.81534 85.4976 7.47318C85.8826 8.13102 86.0752 8.87309 86.0752 9.6994C86.0752 10.5257 85.8826 11.2718 85.4976 11.9377C85.1125 12.5955 84.591 13.1089 83.9332 13.478C83.2754 13.847 82.5493 14.0315 81.7551 14.0315ZM81.7551 12.1543C82.429 12.1543 82.9665 11.9296 83.3676 11.4804C83.7768 11.0311 83.9813 10.4375 83.9813 9.6994C83.9813 8.95332 83.7768 8.35966 83.3676 7.91842C82.9665 7.46917 82.429 7.24454 81.7551 7.24454C81.0732 7.24454 80.5277 7.46516 80.1185 7.90639C79.7174 8.34762 79.5169 8.94529 79.5169 9.6994C79.5169 10.4455 79.7174 11.0432 80.1185 11.4924C80.5277 11.9336 81.0732 12.1543 81.7551 12.1543ZM91.528 13.9473L89.7711 10.7584H89.2777V13.9473H87.22V5.49967H90.6736C91.3395 5.49967 91.9051 5.61599 92.3704 5.84864C92.8437 6.08129 93.1967 6.40219 93.4293 6.81133C93.662 7.21245 93.7783 7.66171 93.7783 8.1591C93.7783 8.72067 93.6178 9.22207 93.2969 9.6633C92.9841 10.1045 92.5188 10.4174 91.901 10.6019L93.8505 13.9473H91.528ZM89.2777 9.30229H90.5533C90.9303 9.30229 91.2111 9.21003 91.3956 9.02552C91.5882 8.841 91.6844 8.58027 91.6844 8.24333C91.6844 7.92244 91.5882 7.66973 91.3956 7.48521C91.2111 7.3007 90.9303 7.20844 90.5533 7.20844H89.2777V9.30229ZM103.119 5.49967V7.14827H99.6779V8.92925H102.253V10.5297H99.6779V13.9473H97.6201V5.49967H103.119ZM108.196 14.0315C107.402 14.0315 106.672 13.847 106.006 13.478C105.348 13.1089 104.823 12.5955 104.43 11.9377C104.045 11.2718 103.852 10.5257 103.852 9.6994C103.852 8.87309 104.045 8.13102 104.43 7.47318C104.823 6.81534 105.348 6.30191 106.006 5.93288C106.672 5.56385 107.402 5.37933 108.196 5.37933C108.99 5.37933 109.716 5.56385 110.374 5.93288C111.04 6.30191 111.562 6.81534 111.939 7.47318C112.324 8.13102 112.516 8.87309 112.516 9.6994C112.516 10.5257 112.324 11.2718 111.939 11.9377C111.554 12.5955 111.032 13.1089 110.374 13.478C109.716 13.847 108.99 14.0315 108.196 14.0315ZM108.196 12.1543C108.87 12.1543 109.408 11.9296 109.809 11.4804C110.218 11.0311 110.422 10.4375 110.422 9.6994C110.422 8.95332 110.218 8.35966 109.809 7.91842C109.408 7.46917 108.87 7.24454 108.196 7.24454C107.514 7.24454 106.969 7.46516 106.56 7.90639C106.158 8.34762 105.958 8.94529 105.958 9.6994C105.958 10.4455 106.158 11.0432 106.56 11.4924C106.969 11.9336 107.514 12.1543 108.196 12.1543ZM117.969 13.9473L116.212 10.7584H115.719V13.9473H113.661V5.49967H117.115C117.781 5.49967 118.346 5.61599 118.811 5.84864C119.285 6.08129 119.638 6.40219 119.87 6.81133C120.103 7.21245 120.219 7.66171 120.219 8.1591C120.219 8.72067 120.059 9.22207 119.738 9.6633C119.425 10.1045 118.96 10.4174 118.342 10.6019L120.292 13.9473H117.969ZM115.719 9.30229H116.994C117.371 9.30229 117.652 9.21003 117.837 9.02552C118.029 8.841 118.125 8.58027 118.125 8.24333C118.125 7.92244 118.029 7.66973 117.837 7.48521C117.652 7.3007 117.371 7.20844 116.994 7.20844H115.719V9.30229ZM126.77 12.4551H123.617L123.112 13.9473H120.958L124.014 5.49967H126.397L129.453 13.9473H127.275L126.77 12.4551ZM126.24 10.8667L125.193 7.77402L124.158 10.8667H126.24ZM136.098 5.49967C136.989 5.49967 137.767 5.67616 138.433 6.02915C139.099 6.38213 139.612 6.87952 139.973 7.52132C140.342 8.15509 140.527 8.88914 140.527 9.72347C140.527 10.5498 140.342 11.2838 139.973 11.9256C139.612 12.5674 139.095 13.0648 138.421 13.4178C137.755 13.7708 136.981 13.9473 136.098 13.9473H132.934V5.49967H136.098ZM135.966 12.1663C136.744 12.1663 137.35 11.9537 137.783 11.5285C138.216 11.1033 138.433 10.5016 138.433 9.72347C138.433 8.94529 138.216 8.3396 137.783 7.90639C137.35 7.47318 136.744 7.25658 135.966 7.25658H134.991V12.1663H135.966ZM146.935 12.4551H143.783L143.277 13.9473H141.123L144.18 5.49967H146.562L149.619 13.9473H147.441L146.935 12.4551ZM146.406 10.8667L145.359 7.77402L144.324 10.8667H146.406Z" fill="white"/>
<path d="M1.71489 26.6946C1.45817 26.5234 1.32981 26.3309 1.32981 26.117C1.32981 25.903 1.71489 25.7105 2.48504 25.5393C3.25519 25.3682 4.19649 25.2826 5.30893 25.2826C6.46415 25.2826 7.42684 25.3682 8.19699 25.5393C8.96715 25.7105 9.35222 25.903 9.35222 26.117C9.35222 26.3309 9.50197 26.5234 9.80148 26.6946C10.101 26.8657 10.4433 26.9513 10.8283 26.9513C11.2562 26.9513 11.6413 27.1224 11.9836 27.4647C12.3686 27.807 12.9249 28.7055 13.6522 30.1602C14.4224 31.615 15.2995 33.4548 16.2836 35.6797C17.2677 37.9045 18.701 41.1991 20.5836 45.5633C21.097 46.6757 21.5891 47.6812 22.0597 48.5797C22.5304 49.4782 22.9154 50.1628 23.2149 50.6334C23.5572 51.1041 23.7712 51.2966 23.8567 51.2111C24.2418 50.7832 26.2528 46.3548 29.8896 37.9259C31.9861 33.0911 33.5264 29.7752 34.5105 27.9782C35.4946 26.1811 36.2433 25.2826 36.7568 25.2826C37.2702 25.2826 37.6125 25.6249 37.7836 26.3095C38.0831 27.5075 38.2329 33.1981 38.2329 43.3812V61.4156H34.1896C31.708 61.4156 30.3816 61.1374 30.2105 60.5812C30.0821 60.1534 30.8309 59.8539 32.4568 59.6827L34.6389 59.426L35.0239 33.7543L29.0553 47.3603C25.0761 56.4738 22.8513 61.0947 22.3806 61.223C22.1667 61.3086 21.3965 60.0464 20.0702 57.4364C18.7866 54.7837 17.3318 51.5747 15.706 47.8096L9.7373 34.1394L9.35222 64.6245H5.24475C2.72036 64.6245 1.47956 64.3464 1.52235 63.7902C1.52235 63.7474 1.52235 63.6832 1.52235 63.5977C1.69349 63.0842 2.33529 62.6564 3.44773 62.3141C4.56017 61.9718 5.26614 61.5867 5.56564 61.1588C5.95072 60.517 6.14326 54.9762 6.14326 44.5364C6.14326 35.5513 5.88654 30.2672 5.37311 28.6841C4.73131 27.5717 3.8542 26.9941 2.74176 26.9513C2.35668 26.9513 2.01439 26.8657 1.71489 26.6946ZM57.4691 28.1065C57.9826 26.7374 58.6671 26.7374 59.5229 28.1065C60.0791 29.005 60.8706 30.6951 61.8975 33.1767C63.2239 36.514 63.994 38.7817 64.208 39.9797C64.4219 41.1349 64.208 42.012 63.5662 42.611C63.1383 43.0389 63.1811 43.809 63.6945 44.9215C64.2507 45.9911 65.0637 47.51 66.1333 49.4782C67.203 51.4464 67.9731 53.2434 68.4438 54.8693C68.7433 55.8534 69.0856 56.7305 69.4707 57.5006C69.8985 58.228 70.2622 58.6558 70.5617 58.7842C72.0164 59.3404 72.1448 59.8111 70.9468 60.1962C70.0483 60.4529 68.6577 60.5812 66.7751 60.5812C63.5662 60.5812 61.9403 60.2817 61.8975 59.6827C61.8547 59.3832 62.4109 59.0837 63.5662 58.7842C64.593 58.5275 65.1065 57.9713 65.1065 57.1155C65.1065 56.217 64.6144 54.5912 63.6303 52.2379L62.0259 48.5797H49.8318L48.2273 52.1737C47.286 54.3986 46.8582 56.0245 46.9437 57.0514C47.0721 58.0782 47.7567 58.6772 48.9975 58.8484C50.3666 59.0623 50.987 59.319 50.8587 59.6185C50.6447 60.2175 48.9547 60.5384 45.7885 60.5812C45.5746 60.5812 45.3606 60.5812 45.1467 60.5812C41.3815 60.5812 39.4989 60.4315 39.4989 60.132C39.4989 59.8325 40.1193 59.1693 41.3601 58.1424C42.3442 57.415 43.8631 54.6339 45.9169 49.7991C47.9706 44.9215 49.9388 40.3006 51.8214 35.9364C53.7039 31.5294 54.9875 29.3259 55.6721 29.3259C56.0144 29.3259 56.3567 29.219 56.699 29.005C57.0841 28.7483 57.3408 28.4488 57.4691 28.1065ZM55.8646 46.2051C59.4159 46.2051 61.1915 46.1195 61.1915 45.9484C61.1915 45.7344 60.3786 43.6593 58.7527 39.723C57.1268 35.7866 56.2283 33.7329 56.0572 33.5618C56.0144 33.519 55.8005 33.8826 55.4154 34.6528C55.0303 35.4229 54.5811 36.407 54.0676 37.605C53.597 38.7603 53.1263 39.9369 52.6557 41.1349C52.185 42.2901 51.7572 43.317 51.3721 44.2155C51.0298 45.0712 50.8587 45.5205 50.8587 45.5633C50.6875 45.9484 52.292 46.1409 55.6721 46.1409C55.7149 46.1837 55.7791 46.2051 55.8646 46.2051ZM86.5077 26.2453C86.5933 26.0314 86.6361 25.7319 86.6361 25.3468C86.6361 24.9189 86.6789 24.6194 86.7645 24.4483C86.8928 24.2344 87.2351 24.0846 87.7913 23.999C88.3903 23.8707 89.0963 23.8065 89.9092 23.8065C90.765 23.7637 92.0913 23.7423 93.8884 23.7423H101.141V28.1065C101.141 31.016 100.948 32.4707 100.563 32.4707C100.306 32.4279 99.9212 31.7006 99.4078 30.2886C98.4665 27.5075 95.9635 26.117 91.8988 26.117H89.0749V39.8513C89.0749 43.5737 89.0963 46.4618 89.1391 48.5155C89.2247 50.5265 89.3958 52.1951 89.6525 53.5215C89.9092 54.8051 90.2301 55.6394 90.6152 56.0245C91.0003 56.4096 91.5565 56.6021 92.2839 56.6021C93.3535 56.6021 93.8884 56.8802 93.8884 57.4364C93.8884 57.9499 92.8187 58.2066 90.6794 58.2066C89.1391 58.2066 88.2192 58.335 87.9197 58.5917C87.6202 58.8056 87.4704 59.4688 87.4704 60.5812C87.4704 61.7365 87.2993 62.4424 86.957 62.6991C86.6147 62.9131 85.5878 63.02 83.8764 63.02C81.4376 63.02 80.2396 62.7205 80.2824 62.1215C80.3251 61.7792 80.9883 61.437 82.2719 61.0947L84.2615 60.5812V29.0692L80.86 29.6468C79.1485 29.9035 77.6724 30.5239 76.4316 31.508C75.2336 32.4921 74.6346 33.5404 74.6346 34.6528C74.6346 35.3802 74.3565 35.7438 73.8002 35.7438C73.5863 35.7438 73.3938 35.316 73.2226 34.4603C73.0943 33.5618 73.0301 32.5135 73.0301 31.3155V26.9513H79.8331C81.5445 26.9513 82.7853 26.9299 83.5555 26.8871C84.3684 26.8443 85.0316 26.7801 85.5451 26.6946C86.1013 26.5662 86.4222 26.4165 86.5077 26.2453ZM102.425 59.0409V24.5125H108.201C108.415 24.5125 108.714 24.5125 109.099 24.5125C110.426 24.5125 111.367 24.5125 111.923 24.5125C112.522 24.5125 113.228 24.5767 114.041 24.705C114.854 24.7906 115.368 24.8548 115.581 24.8975C115.838 24.9403 116.159 25.1543 116.544 25.5393C116.972 25.9244 117.207 26.2453 117.25 26.502C117.293 26.716 117.378 27.2294 117.507 28.0423C117.635 28.8125 117.699 29.4757 117.699 30.0319C117.699 30.5881 117.699 31.508 117.699 32.7916C117.699 33.1767 117.699 33.4548 117.699 33.6259C117.699 37.4339 117.592 39.8085 117.378 40.7498C117.207 41.6911 116.758 42.3115 116.031 42.611C115.346 42.9533 115.068 43.3812 115.196 43.8946C115.368 44.5792 116.737 46.7399 119.304 50.3767C121.144 52.9867 122.62 54.8907 123.732 56.0887C124.887 57.2439 125.957 58.0141 126.941 58.3991C130.364 59.5971 130.471 60.3031 127.262 60.517C126.62 60.5598 125.829 60.5812 124.887 60.5812H120.138L114.362 52.1737C110.682 46.8683 108.308 44.0872 107.238 43.8304C106.639 43.6593 106.211 44.0658 105.955 45.0498C105.741 45.9484 105.634 47.4673 105.634 49.6066C105.634 52.6444 105.869 54.6981 106.34 55.7678C106.81 56.8374 107.687 57.3723 108.971 57.3723C109.399 57.3723 109.741 57.4578 109.998 57.629C110.297 57.8001 110.447 57.9927 110.447 58.2066C110.447 58.4205 110.062 58.6131 109.292 58.7842C108.522 58.9554 107.559 59.0409 106.404 59.0409H102.425ZM112.308 27.8498C111.324 27.3364 110.169 27.0369 108.843 26.9513C107.516 26.8229 106.639 26.9727 106.211 27.4005C105.826 27.7856 105.634 30.203 105.634 34.6528V41.3274H108.522C110.148 41.3274 111.624 40.814 112.95 39.7871C114.276 38.7175 115.196 37.4767 115.71 36.0647C116.223 34.6528 116.202 33.1553 115.646 31.5722C115.132 29.9891 114.02 28.7483 112.308 27.8498ZM135.63 25.7319C135.63 25.3896 135.78 25.1115 136.079 24.8975C136.422 24.6408 136.807 24.5125 137.234 24.5125C137.833 24.5125 138.219 24.8334 138.39 25.4752C138.689 26.5876 138.839 32.2782 138.839 42.5469C138.839 50.2911 138.753 55.233 138.582 57.3723C138.454 59.5116 138.133 60.5812 137.62 60.5812C137.32 60.5812 137.042 60.7096 136.785 60.9663C136.571 61.223 136.464 61.5011 136.464 61.8006C136.464 62.6136 135.523 63.02 133.64 63.02C132.87 63.02 132.207 62.9559 131.651 62.8275C131.095 62.6564 130.817 62.4638 130.817 62.2499C130.817 61.6937 131.351 61.4156 132.421 61.4156C133.106 61.4156 133.64 61.2016 134.025 60.7738C134.411 60.3031 134.731 59.4046 134.988 58.0782C135.245 56.7519 135.416 55.0618 135.502 53.0081C135.587 50.9115 135.63 48.0663 135.63 44.4722C135.63 40.9638 135.587 38.2468 135.502 36.3215C135.416 34.3533 135.245 32.7488 134.988 31.508C134.774 30.2672 134.453 29.4543 134.025 29.0692C133.64 28.6841 133.106 28.4916 132.421 28.4916C131.993 28.4916 131.608 28.4274 131.266 28.2991C130.966 28.1279 130.817 27.9354 130.817 27.7214C130.817 27.5075 131.052 27.3364 131.522 27.208C131.993 27.0369 132.571 26.9513 133.255 26.9513C134.838 26.9513 135.63 26.5448 135.63 25.7319ZM145.291 28.4916C144.564 28.4916 144.029 28.2349 143.686 27.7214C143.387 27.208 146.04 26.9513 151.645 26.9513C157.292 26.9513 160.116 27.208 160.116 27.7214C160.116 27.9354 159.967 28.1279 159.667 28.2991C159.368 28.4274 159.004 28.4916 158.576 28.4916C157.464 28.4916 156.907 29.005 156.907 30.0319C156.907 30.8448 157.72 32.6846 159.346 35.5513C160.972 38.3752 162.02 39.7871 162.491 39.7871C162.791 39.7871 163.946 38.4608 165.957 35.808C167.968 33.1125 169.144 31.3583 169.487 30.5453C169.7 29.9891 169.487 29.5185 168.845 29.1334C168.246 28.7055 167.583 28.3418 166.855 28.0423C166.128 27.7428 165.764 27.5075 165.764 27.3364C165.764 27.0796 167.903 26.9513 172.182 26.9513C176.717 26.9513 178.878 27.2722 178.664 27.914C178.536 28.2135 177.873 28.513 176.675 28.8125C175.947 29.0264 174.985 29.7538 173.787 30.9946C172.589 32.2354 171.455 33.5618 170.385 34.9737C169.358 36.3429 168.267 37.605 167.112 38.7603C165.999 39.9155 165.101 40.4931 164.416 40.4931C163.304 40.5359 162.427 40.9424 161.785 41.7125C161.357 42.1832 161.443 43.0389 162.042 44.2797C162.641 45.5205 164.053 47.8737 166.278 51.3394C169.957 56.9872 172.524 60.1106 173.979 60.7096C176.675 61.822 176.696 62.528 174.043 62.8275C172.845 62.9559 171.027 63.02 168.588 63.02C163.154 63.02 160.566 62.6778 160.822 61.9932C160.951 61.7365 161.528 61.4583 162.555 61.1588C162.983 61.0733 163.347 60.8807 163.646 60.5812C163.989 60.2389 164.16 59.8966 164.16 59.5544C164.16 58.9981 163.603 57.7359 162.491 55.7678C161.379 53.7996 160.223 52.024 159.025 50.4409C157.827 48.815 157.121 48.1091 156.907 48.323C156.522 48.7508 155.068 50.6976 152.543 54.1633C150.489 56.9872 149.441 58.6558 149.398 59.1693C149.356 59.5971 149.698 60.1106 150.425 60.7096C151.581 61.6081 152.158 62.2285 152.158 62.5708C152.158 62.8703 150.147 63.02 146.125 63.02C142.103 63.02 140.092 62.8275 140.092 62.4424C140.092 62.0146 141.034 61.2658 142.916 60.1962C143.686 59.7683 144.842 58.7414 146.382 57.1155C147.965 55.4469 149.463 53.6927 150.875 51.8528L156.073 45.0498L152.864 40.5573H154.469C155.196 40.5573 155.56 40.4075 155.56 40.108C155.56 39.7657 154.939 38.5891 153.698 36.5782C152.372 34.4389 150.875 32.5563 149.206 30.9304C147.537 29.3045 146.232 28.4916 145.291 28.4916Z" fill="#36BF4A"/>
</svg>
